<svg width="21" height="21" viewBox="0 0 21 21" fill="none" xmlns="http://www.w3.org/2000/svg">
<g clip-path="url(#clip0_89_973)">
<path d="M10.5 2.675C12.3099 2.675 13.7312 4.09636 13.7312 5.90625C13.7312 7.71614 12.3099 9.1375 10.5 9.1375C8.69011 9.1375 7.26875 7.71614 7.26875 5.90625C7.26875 4.09636 8.69011 2.675 10.5 2.675ZM10.5 1.2625C7.97864 1.2625 5.85625 3.38489 5.85625 5.90625C5.85625 8.42761 7.97864 10.55 10.5 10.55C13.0214 10.55 15.1438 8.42761 15.1438 5.90625C15.1438 3.38489 13.0214 1.2625 10.5 1.2625Z" fill="black" stroke="black" stroke-width="0.1"/>
<path d="M17.875 19.7375C18.1788 19.7375 18.425 19.4913 18.425 19.1875V16.4062C18.425 13.8849 16.3026 11.7625 13.7812 11.7625H7.21875C4.69739 11.7625 2.575 13.8849 2.575 16.4062V19.1875C2.575 19.4913 2.82124 19.7375 3.125 19.7375H3.4375C3.74126 19.7375 3.9875 19.4913 3.9875 19.1875V16.4062C3.9875 14.5964 5.40886 13.175 7.21875 13.175H13.7812C15.5911 13.175 17.0125 14.5964 17.0125 16.4062V19.1875C17.0125 19.4913 17.2587 19.7375 17.5625 19.7375H17.875Z" fill="black" stroke="black" stroke-width="0.1"/>
</g>
<defs>
<clipPath id="clip0_89_973">
<rect width="21" height="21" fill="white"/>
</clipPath>
</defs>
</svg>
