<svg width="24" height="24" viewBox="0 0 24 24" fill="none" xmlns="http://www.w3.org/2000/svg">
<g clip-path="url(#clip0_89_977)">
<path d="M20.25 4.30371H3.75C3.33579 4.30371 3 4.6395 3 5.05371V20.7503C3 21.1645 3.33579 21.5003 3.75 21.5003H20.25C20.6642 21.5003 21 21.1645 21 20.7503V5.05371C21 4.6395 20.6642 4.30371 20.25 4.30371Z" stroke="black" stroke-width="1.4" stroke-linecap="round" stroke-linejoin="round"/>
<path d="M3 7.5H21" stroke="black" stroke-width="1.4" stroke-linecap="round" stroke-linejoin="round"/>
<path d="M15.75 10.5C15.75 11.4946 15.3549 12.4484 14.6517 13.1517C13.9484 13.8549 12.9946 14.25 12 14.25C11.0054 14.25 10.0516 13.8549 9.34835 13.1517C8.64509 12.4484 8.25 11.4946 8.25 10.5" stroke="black" stroke-width="1.4" stroke-linecap="round" stroke-linejoin="round"/>
</g>
<defs>
<clipPath id="clip0_89_977">
<rect width="24" height="24" fill="white"/>
</clipPath>
</defs>
</svg>
