<svg width="20" height="19" viewBox="0 0 20 19" fill="none" xmlns="http://www.w3.org/2000/svg">
<g clip-path="url(#clip0_150_958)">
<path d="M17.4254 15.1558C17.1707 13.9958 16.2194 13.058 15.0011 12.7665C14.1677 12.5678 13.3303 12.668 12.5962 13.0487L11.6559 11.029L15.2542 2.82562C15.3619 2.58059 15.4172 2.31766 15.417 2.05212C15.4173 1.72106 15.3314 1.39505 15.167 1.10315C15.0026 0.811257 14.7647 0.562535 14.4746 0.379152L13.9814 0.0668078C13.9309 0.0345976 13.8736 0.0133571 13.8136 0.00460133C13.7535 -0.00415442 13.6921 -0.000209612 13.6339 0.0161543C13.5755 0.0322043 13.5216 0.0602186 13.4759 0.0982212C13.4302 0.136224 13.3938 0.183289 13.3694 0.236098L10.0002 7.47278L6.63094 0.236135C6.60648 0.183326 6.57011 0.136261 6.52441 0.0982583C6.47871 0.0602557 6.42479 0.0322414 6.36646 0.0161915C6.30819 -0.000247685 6.24681 -0.00423135 6.18673 0.00452629C6.12665 0.0132839 6.06936 0.0345658 6.01896 0.0668449L5.52581 0.379189C5.23566 0.562559 4.99777 0.811273 4.83334 1.10317C4.66891 1.39506 4.58304 1.72106 4.5834 2.05212C4.58313 2.31766 4.63846 2.58059 4.74617 2.82562L8.34431 11.0297L7.40327 13.0491C6.91906 12.7978 6.38438 12.6668 5.83342 12.6668C3.99501 12.6668 2.5 14.0873 2.5 15.8334C2.5 17.5794 3.99497 19 5.83342 19C7.67182 19 9.16684 17.5794 9.16684 15.8334C9.16684 14.6625 9.57019 13.8065 9.99963 13.2213C10.4171 13.7889 10.8071 14.6018 10.8319 15.7205C10.871 17.4716 12.2585 18.9099 13.9895 18.9957C14.0498 18.9984 14.1092 19 14.1678 19C15.1452 19 16.0599 18.6018 16.6996 17.8925C17.3783 17.1399 17.6427 16.1422 17.4254 15.1558ZM5.8333 17.4167C4.91453 17.4167 4.16665 16.7066 4.16665 15.8334C4.16665 14.9601 4.91453 14.2501 5.8333 14.2501C6.75207 14.2501 7.49995 14.9601 7.49995 15.8334C7.49995 16.7066 6.75207 17.4167 5.8333 17.4167ZM9.99987 11.8751C9.54007 11.8751 9.16656 11.5199 9.16656 11.0835C9.16656 10.6471 9.54011 10.2919 9.99987 10.2919C10.4597 10.2919 10.8332 10.6471 10.8332 11.0835C10.8332 11.5199 10.4597 11.8751 9.99987 11.8751ZM14.1665 17.4167C13.2477 17.4167 12.4998 16.7066 12.4998 15.8334C12.4998 14.9601 13.2477 14.2501 14.1665 14.2501C15.0852 14.2501 15.8331 14.9601 15.8331 15.8334C15.8331 16.7066 15.0852 17.4167 14.1665 17.4167Z" fill="white"/>
</g>
<defs>
<clipPath id="clip0_150_958">
<rect width="20" height="19" fill="white"/>
</clipPath>
</defs>
</svg>
