<svg width="42" height="38" viewBox="0 0 42 38" fill="none" xmlns="http://www.w3.org/2000/svg">
<path d="M41.9606 12.1199L39.585 2.61212C39.2936 1.444 38.2436 0.625 37.0387 0.625H4.96388C3.759 0.625 2.709 1.444 2.415 2.61212L0.039375 12.1199C0.013125 12.2223 0 12.3299 0 12.4375C0 16.0548 2.79563 19 6.23438 19C8.232 19 10.0144 18.0051 11.1562 16.4616C12.2981 18.0051 14.0805 19 16.0781 19C18.0758 19 19.8581 18.0051 21 16.4616C22.1419 18.0051 23.9216 19 25.9219 19C27.9221 19 29.7019 18.0051 30.8438 16.4616C31.9856 18.0051 33.7654 19 35.7656 19C39.2044 19 42 16.0548 42 12.4375C42 12.3299 41.9869 12.2223 41.9606 12.1199ZM35.7656 21.625C33.978 21.625 32.2796 21.079 30.8438 20.0815C27.972 22.0791 23.8717 22.0791 21 20.0815C18.1283 22.0791 14.028 22.0791 11.1562 20.0815C9.72038 21.079 8.022 21.625 6.23438 21.625C4.9455 21.625 3.73012 21.3231 2.625 20.8086V34.75C2.625 36.199 3.801 37.375 5.25 37.375H15.75V26.875H26.25V37.375H36.75C38.199 37.375 39.375 36.199 39.375 34.75V20.8086C38.2699 21.3231 37.0545 21.625 35.7656 21.625Z" fill="black"/>
</svg>
