<svg width="40" height="40" viewBox="0 0 40 40" fill="none" xmlns="http://www.w3.org/2000/svg">
<mask id="mask0_89_1039" style="mask-type:luminance" maskUnits="userSpaceOnUse" x="0" y="0" width="40" height="40">
<path d="M0 0H40V40H0V0Z" fill="white"/>
</mask>
<g mask="url(#mask0_89_1039)">
<path fill-rule="evenodd" clip-rule="evenodd" d="M11.1387 0.677501C11.2757 0.581794 11.419 0.495351 11.5675 0.418751C11.6847 0.286902 11.8285 0.181405 11.9894 0.109223C12.1504 0.0370409 12.3248 -0.000185567 12.5012 6.95531e-07H27.5012C27.6144 -8.29343e-05 27.7271 0.0150527 27.8362 0.0450007C28.0676 0.109479 28.2754 0.239236 28.435 0.418751C28.5825 0.493751 28.7262 0.581251 28.8637 0.677501L33.8387 4.16C34.4537 4.5906 34.9253 5.19588 35.1925 5.8975L39.92 18.305C40.0301 18.5947 40.0287 18.915 39.916 19.2038C39.8032 19.4925 39.5873 19.729 39.31 19.8675L35.0012 22.0225V36.25C35.0012 37.2446 34.6061 38.1984 33.9029 38.9016C33.1996 39.6049 32.2458 40 31.2512 40H8.75123C7.75667 40 6.80284 39.6049 6.09958 38.9016C5.39632 38.1984 5.00123 37.2446 5.00123 36.25V22.0225L0.692479 19.8675C0.415403 19.7288 0.199707 19.4922 0.0872273 19.2035C-0.0252527 18.9148 -0.0264993 18.5946 0.0837293 18.305L4.80998 5.8975C5.07713 5.19588 5.54873 4.5906 6.16373 4.16L11.1387 0.677501ZM20.0012 7.5C18.5605 7.49982 17.1641 7.00213 16.0481 6.09107C14.932 5.18001 14.1648 3.91149 13.8762 2.5H26.1262C25.8376 3.91149 25.0704 5.18001 23.9544 6.09107C22.8383 7.00213 21.4419 7.49982 20.0012 7.5Z" fill="black"/>
</g>
</svg>
