<svg width="48" height="35" viewBox="0 0 48 35" fill="none" xmlns="http://www.w3.org/2000/svg">
<g clip-path="url(#clip0_89_1028)">
<path d="M12.2717 33.7941C14.6527 33.0726 15.9979 30.5575 15.2763 28.1765C14.5547 25.7956 12.0396 24.4504 9.65871 25.172C7.27778 25.8936 5.9326 28.4086 6.65417 30.7896C7.37574 33.1705 9.89081 34.5157 12.2717 33.7941Z" fill="black"/>
<path d="M36.7918 33.9938C39.2797 33.9938 41.2965 31.9769 41.2965 29.4891C41.2965 27.0012 39.2797 24.9844 36.7918 24.9844C34.3039 24.9844 32.2871 27.0012 32.2871 29.4891C32.2871 31.9769 34.3039 33.9938 36.7918 33.9938Z" fill="black"/>
<path d="M47.3672 14.5494C46.0426 12.2239 44.535 10.0075 42.8587 7.92125C42.0752 6.95186 41.0884 6.1662 39.9681 5.61966C38.8479 5.07313 37.6213 4.77904 36.375 4.75813C34.875 4.73375 33.3966 4.71969 32.2856 4.71969H32.2744C32.0394 3.53725 31.4274 2.46284 30.5303 1.6576C29.6331 0.852357 28.499 0.359675 27.2981 0.253438C25.6809 0.110938 19.3388 0.0078125 16.3013 0.0078125C13.2638 0.0078125 6.92625 0.110938 5.30438 0.253438C4.00043 0.368568 2.77859 0.938915 1.85297 1.86453C0.927353 2.79015 0.357005 4.01199 0.241875 5.31594C0.103125 6.93313 0 11.5091 0 14.5456C0 17.5822 0.103125 22.1572 0.246563 23.7753C0.344168 24.8783 0.768029 25.9273 1.46411 26.7885C2.16019 27.6498 3.09696 28.2842 4.155 28.6109C4.3722 26.9162 5.21415 25.3635 6.51601 24.2569C7.81786 23.1503 9.48589 22.5695 11.1935 22.6281C12.9011 22.6868 14.5254 23.3806 15.7482 24.5739C16.9711 25.7672 17.7046 27.374 17.805 29.0797C19.8394 29.0647 22.4803 29.0225 24.5203 28.9634C26.1469 29.0141 28.1691 29.0516 29.9447 29.0713C30.0498 27.3618 30.7906 25.7535 32.0215 24.5625C33.2523 23.3716 34.8841 22.6842 36.5961 22.6354C38.3081 22.5866 39.9764 23.18 41.2731 24.299C42.5697 25.418 43.4009 26.9815 43.6031 28.6822C44.7177 28.394 45.7156 27.7677 46.4598 26.8894C47.2039 26.0111 47.6578 24.9239 47.7591 23.7772C47.8828 22.3822 47.9766 19.6616 48 16.9906C48.0078 16.1353 47.7895 15.2932 47.3672 14.5494ZM42.8025 15.9856H32.6044C32.6044 15.4812 32.6109 14.9966 32.6109 14.5456C32.6109 12.4531 32.5612 9.62938 32.4844 7.54719C33.5522 7.54719 34.9397 7.56219 36.3328 7.58469C37.1652 7.59874 37.9844 7.79555 38.7324 8.16119C39.4804 8.52683 40.1388 9.05237 40.6613 9.70063C41.8007 11.1166 42.8566 12.5979 43.8234 14.1369C43.9385 14.3193 44.0025 14.5293 44.0088 14.745C44.0151 14.9606 43.9633 15.174 43.8591 15.3628C43.7548 15.5517 43.6017 15.7091 43.4159 15.8186C43.2301 15.9282 43.0182 15.9858 42.8025 15.9856Z" fill="black"/>
</g>
<defs>
<clipPath id="clip0_89_1028">
<rect width="48" height="35" fill="white"/>
</clipPath>
</defs>
</svg>
