<svg width="20" height="17" viewBox="0 0 20 17" fill="none" xmlns="http://www.w3.org/2000/svg">
<path d="M19.2 6.695L16.92 4.5C16.4667 4.05395 15.856 3.80429 15.22 3.805H14V2.5C14 1.83696 13.7366 1.20107 13.2678 0.732233C12.7989 0.263392 12.163 0 11.5 0H2.5C1.83696 0 1.20107 0.263392 0.732233 0.732233C0.263392 1.20107 6.21601e-09 1.83696 0 2.5V11.5C0 12.163 0.263392 12.7989 0.732233 13.2678C1.20107 13.7366 1.83696 14 2.5 14H3.27C3.38476 14.5651 3.69136 15.0732 4.13787 15.4382C4.58438 15.8031 5.14332 16.0025 5.72 16.0025C6.29668 16.0025 6.85562 15.8031 7.30213 15.4382C7.74863 15.0732 8.05524 14.5651 8.17 14H13.075C13.1765 14.5794 13.4791 15.1045 13.9295 15.4828C14.3799 15.8612 14.9493 16.0686 15.5375 16.0686C16.1257 16.0686 16.6951 15.8612 17.1455 15.4828C17.5959 15.1045 17.8985 14.5794 18 14H18.5C18.8978 14 19.2794 13.842 19.5607 13.5607C19.842 13.2794 20 12.8978 20 12.5V8.615C20.0016 8.25776 19.9317 7.90382 19.7943 7.57406C19.6569 7.2443 19.4548 6.9454 19.2 6.695ZM14 4.79H15.22C15.595 4.79138 15.9542 4.94049 16.22 5.205L18.5 7.415C18.5436 7.45704 18.5822 7.50403 18.615 7.555H14V4.79ZM7.125 14C7.01892 14.2879 6.82711 14.5363 6.57543 14.7118C6.32376 14.8873 6.02432 14.9814 5.7175 14.9814C5.41068 14.9814 5.11124 14.8873 4.85957 14.7118C4.60789 14.5363 4.41608 14.2879 4.31 14C4.25225 13.8395 4.22183 13.6705 4.22 13.5C4.22 13.1022 4.37804 12.7206 4.65934 12.4393C4.94064 12.158 5.32217 12 5.72 12C6.11782 12 6.49936 12.158 6.78066 12.4393C7.06196 12.7206 7.22 13.1022 7.22 13.5C7.21892 13.6711 7.18673 13.8405 7.125 14ZM13 3.79V13H8.17C8.05524 12.4349 7.74863 11.9268 7.30213 11.5618C6.85562 11.1969 6.29668 10.9975 5.72 10.9975C5.14332 10.9975 4.58438 11.1969 4.13787 11.5618C3.69136 11.9268 3.38476 12.4349 3.27 13H2.5C2.10218 13 1.72064 12.842 1.43934 12.5607C1.15804 12.2794 1 11.8978 1 11.5V2.5C1 2.10218 1.15804 1.72064 1.43934 1.43934C1.72064 1.15804 2.10218 1 2.5 1H11.5C11.8978 1 12.2794 1.15804 12.5607 1.43934C12.842 1.72064 13 2.10218 13 2.5V3.79ZM16.935 14C16.8299 14.2896 16.6382 14.5398 16.3859 14.7166C16.1336 14.8934 15.8331 14.9882 15.525 14.9882C15.2169 14.9882 14.9164 14.8934 14.6641 14.7166C14.4118 14.5398 14.2201 14.2896 14.115 14C14.0573 13.8395 14.0268 13.6705 14.025 13.5C14.0308 13.1506 14.1584 12.8142 14.3857 12.5488C14.6131 12.2834 14.926 12.1058 15.2704 12.0465C15.6147 11.9872 15.969 12.0501 16.272 12.2242C16.575 12.3982 16.8077 12.6726 16.93 13C16.9922 13.1594 17.0244 13.3289 17.025 13.5C17.0232 13.6705 16.9927 13.8395 16.935 14ZM19 12.5C19 12.6326 18.9473 12.7598 18.8536 12.8536C18.7598 12.9473 18.6326 13 18.5 13H18C17.8847 12.4353 17.5779 11.9278 17.1315 11.5633C16.685 11.1989 16.1263 10.9999 15.55 11C15.005 11.0101 14.4783 11.1979 14.05 11.535V8.535H19V8.595V12.5Z" fill="black"/>
</svg>
