<svg width="24" height="24" viewBox="0 0 24 24" fill="none" xmlns="http://www.w3.org/2000/svg">
<g clip-path="url(#clip0_318_1460)">
<path d="M21.6434 14.5712C21.2886 14.5712 21.0006 14.8592 21.0006 15.2141V19.7141H3.00056V11.9998H10.072C10.4268 11.9998 10.7148 11.7118 10.7148 11.3569C10.7148 11.0021 10.4268 10.7141 10.072 10.7141H3.00056V8.14265H10.072C10.4268 8.14265 10.7148 7.85465 10.7148 7.49979C10.7148 7.14493 10.4268 6.85693 10.072 6.85693H3.00056C2.29084 6.85693 1.71484 7.43293 1.71484 8.14265V19.7141C1.71484 20.4238 2.29084 20.9998 3.00056 20.9998H21.0006C21.7103 20.9998 22.2863 20.4238 22.2863 19.7141V15.2141C22.2863 14.8592 21.9983 14.5712 21.6434 14.5712Z" fill="black" stroke="black" stroke-width="0.2"/>
<path d="M7.50335 14.5711H4.93192C4.57706 14.5711 4.28906 14.8591 4.28906 15.214C4.28906 15.5688 4.57706 15.8568 4.93192 15.8568H7.50335C7.85821 15.8568 8.14621 15.5688 8.14621 15.214C8.14621 14.8591 7.85821 14.5711 7.50335 14.5711ZM21.8995 4.97968L17.3995 3.05111C17.3191 3.01737 17.2328 3 17.1456 3C17.0584 3 16.972 3.01737 16.8916 3.05111L12.3916 4.97968C12.2763 5.02964 12.1781 5.11226 12.1091 5.21734C12.0401 5.32243 12.0033 5.4454 12.0033 5.57111V8.14254C12.0033 11.6795 13.3109 13.747 16.8261 15.772C16.9251 15.8285 17.0356 15.8568 17.1462 15.8568C17.2568 15.8568 17.3673 15.8285 17.4663 15.772C20.9815 13.7521 22.2891 11.6847 22.2891 8.14254V5.57111C22.2891 5.31396 22.1361 5.08125 21.8995 4.97968ZM21.0033 8.14254C21.0033 11.1112 20.0211 12.7454 17.1462 14.4683C14.2713 12.7415 13.2891 11.1074 13.2891 8.14254V5.99539L17.1462 4.34196L21.0033 5.99539V8.14254Z" fill="black" stroke="black" stroke-width="0.2"/>
<path d="M19.4723 6.99675C19.1959 6.77818 18.7922 6.82061 18.5684 7.09704L16.5473 9.62475L15.7476 8.42904C15.5483 8.13332 15.1484 8.05489 14.8566 8.25032C14.5622 8.44704 14.4812 8.84689 14.6779 9.14132L15.9636 11.0699C16.078 11.2409 16.2657 11.3463 16.4714 11.3566H16.4984C16.6926 11.3566 16.8777 11.2692 17.0012 11.1149L19.5726 7.90061C19.7937 7.62289 19.75 7.21918 19.4723 6.99675Z" fill="black" stroke="black" stroke-width="0.2"/>
</g>
<defs>
<clipPath id="clip0_318_1460">
<rect width="20.5714" height="20.5714" fill="white" transform="translate(1.71484 1.71436)"/>
</clipPath>
</defs>
</svg>
