<svg width="16" height="18" viewBox="0 0 16 18" fill="none" xmlns="http://www.w3.org/2000/svg">
<path fill-rule="evenodd" clip-rule="evenodd" d="M15.4804 8.26225L1.37013 0.115488C1.24107 0.0403678 1.09452 0.000537609 0.945195 0H0.942734C0.793329 0.000593386 0.646705 0.0404441 0.517554 0.115559C0.387492 0.189733 0.279509 0.297181 0.204691 0.426875C0.129873 0.556568 0.0909136 0.703834 0.0918121 0.853559V17.1469C0.0912212 17.2968 0.130227 17.4441 0.204879 17.574C0.279531 17.7039 0.38718 17.8117 0.516927 17.8866C0.646673 17.9616 0.79391 18.0009 0.943731 18.0006C1.09355 18.0003 1.24064 17.9604 1.37009 17.885L15.4804 9.73821C15.61 9.66343 15.7175 9.55585 15.7923 9.42631C15.8671 9.29677 15.9065 9.14982 15.9065 9.00023C15.9065 8.85064 15.8671 8.70369 15.7923 8.57415C15.7175 8.4446 15.61 8.33703 15.4804 8.26225Z" fill="black"/>
</svg>
