<svg width="25" height="25" viewBox="0 0 25 25" fill="none" xmlns="http://www.w3.org/2000/svg">
<path d="M22.6453 2.94861C22.5414 2.51346 22.0632 2.21736 21.6297 2.37127C21.6297 2.37127 2.84762 9.00017 2.84449 9.00252C2.55621 9.10955 2.34449 9.38455 2.32887 9.69939C2.31481 10.0017 2.50152 10.3166 2.77731 10.4447L10.0523 13.8408L13.6031 10.29C14.3062 9.58689 15.4289 10.6744 14.7078 11.3947L11.157 14.9455L14.5547 22.2244C14.6929 22.49 14.9632 22.6588 15.2601 22.6721C15.5828 22.6869 15.8812 22.44 15.9968 22.151L22.6257 3.36814C22.6731 3.23321 22.6799 3.08736 22.6453 2.94861Z" fill="white"/>
</svg>
