<svg width="141" height="37" viewBox="0 0 141 37" fill="none" xmlns="http://www.w3.org/2000/svg">
<path d="M8.64429 38.1137C7.06851 38.1137 1.89094 37.4834 1.89094 30.8201V24.8771C1.89094 21.7706 1.89094 20.6 0.495246 18.9342C0.315156 18.7091 0.225112 18.484 0.225112 18.2138C0.225112 17.4485 0.76538 16.9082 1.48574 16.8632C4.2321 16.593 7.06851 16.0978 9.81487 15.3774C9.94994 15.3324 10.13 15.3324 10.2651 15.3324C11.0755 15.3324 11.7058 15.9177 11.7058 16.8181C11.6608 20.8251 11.6158 23.9317 11.6158 27.8486C11.6158 30.64 12.7413 31.4504 14.0019 31.4504C14.7673 31.4504 15.8028 30.9552 15.8028 29.8296V24.8771C15.8028 21.7706 15.7578 20.555 14.3621 18.9342C14.182 18.7091 14.092 18.484 14.092 18.2138C14.092 17.4485 14.6323 16.9082 15.3526 16.8632C18.054 16.593 20.8453 16.0978 23.5917 15.4225C23.7718 15.3774 23.9519 15.3324 24.087 15.3324C24.9424 15.3324 25.6177 16.0077 25.6177 16.9532V29.8746C25.6177 32.3509 25.9779 33.1613 27.0134 33.9266C27.3286 34.1067 27.5086 34.4669 27.5086 34.8721C27.5086 35.5925 27.0134 36.1778 26.3831 36.3128L17.7838 37.7986C16.8384 37.9786 15.9829 37.2583 15.9829 36.2228V35.8626C15.9829 35.3673 15.7578 35.1422 15.4427 35.1422C15.1725 35.1422 14.8574 35.2773 14.5872 35.5474C13.0565 36.9882 11.2556 38.1137 8.64429 38.1137ZM29.9472 37.4834C28.9567 37.4834 28.2814 36.9882 28.2814 36.0877C28.2814 35.5024 28.5515 35.0072 29.0918 34.647C29.7672 34.2868 29.9472 33.1162 29.9472 29.6945V23.9767C29.9472 21.3654 29.6771 20.1498 28.3264 18.7541C28.1463 18.574 28.0563 18.3489 28.0563 17.8987C28.0563 17.3134 28.5065 16.8181 29.0918 16.7731C32.0633 16.548 35.2149 16.0077 37.9162 15.2874C38.1413 15.2424 38.3214 15.1973 38.5015 15.1973C39.0418 15.1973 39.447 15.4675 39.447 15.9177V17.3584C39.447 17.8537 39.7171 18.1688 40.0322 18.1688C40.3024 18.1688 40.6175 17.9887 40.9327 17.6736C42.1033 16.4129 43.8591 14.9272 46.2903 14.9272C47.1458 14.9272 48.0012 15.2874 47.8211 16.548L46.8756 24.3819C46.7406 25.4174 46.0652 25.9127 45.2098 25.9127C44.6695 25.9127 44.1293 25.7326 43.7241 25.2823C42.9587 24.562 42.4634 21.9057 40.8877 21.9057C40.2574 21.9057 39.7621 22.581 39.7621 23.6615V29.6945C39.7621 33.1162 40.0322 34.2868 40.9327 34.647C41.7431 35.0072 42.1483 35.5024 42.1483 36.0877C42.1483 36.9882 41.1578 37.4834 39.8071 37.4834H29.9472ZM65.5581 37.9336C59.4351 37.9336 58.3096 34.602 56.2835 34.602C55.4281 34.602 54.3926 35.1873 52.7718 36.9431C52.1415 37.6635 51.7363 37.7085 51.3311 37.7085C50.6558 37.7085 50.1155 37.1682 50.1155 36.4929V10.9652C50.1155 9.83968 49.7553 9.11932 48.8999 8.12884C48.2696 7.40848 48.2245 7.09332 48.2245 6.73314C48.2245 6.10283 48.6297 5.65261 49.2601 5.60759C52.2766 5.33745 55.2931 4.8422 58.3096 4.0318C58.4446 3.98678 58.5347 3.98678 58.6697 3.98678C59.3901 3.98678 59.9304 4.57207 59.9304 5.33745V16.1428C59.9304 16.9082 60.1555 17.2684 60.5607 17.2684C60.8308 17.2684 61.191 17.1333 61.5962 16.7731C62.8118 15.6926 64.4776 14.9272 66.5486 14.9272C70.3305 14.9272 75.328 17.4485 75.328 26.2278C75.328 35.5024 69.5651 37.9336 65.5581 37.9336ZM62.9469 34.1968C64.4326 34.1968 65.1529 32.2608 65.1529 27.2633C65.1529 23.7066 64.5677 20.3299 62.2265 20.3299C61.191 20.3299 59.9304 21.4554 59.9304 22.3109V28.569C59.9304 31.9457 61.6862 34.1968 62.9469 34.1968ZM82.6448 37.9336C79.1331 37.9336 76.6569 35.6375 76.6569 32.3959C76.6569 28.569 80.0335 26.0927 88.4527 23.7516C89.5332 23.4364 90.1185 22.8061 90.1185 21.6806V20.1048C90.1185 18.9792 89.5783 18.3039 88.5878 18.3039C86.967 18.3039 85.9765 20.2849 85.7063 22.8061C85.6163 23.3914 85.3912 23.7516 84.8509 23.8867L84.3107 24.1118C84.1756 24.1568 83.9955 24.1568 83.8604 24.1568C83.5453 24.1568 83.2751 24.1118 82.915 23.9317L79.0881 21.8156C78.5928 21.5455 78.3227 21.1403 78.3227 20.6901C78.3227 20.465 78.3677 20.2398 78.5028 20.0147C79.7184 17.1333 84.5808 14.9272 89.8484 14.9272C96.8719 14.9272 99.5732 17.6285 99.3931 24.4719L99.213 31.2703C99.213 31.9006 99.3931 32.3959 100.023 32.4409C100.159 32.4409 100.564 32.3058 100.789 32.1708C100.969 32.0807 101.149 32.0807 101.284 32.0807C101.869 32.0807 102.139 32.576 102.185 33.1162V33.4314C102.185 34.8721 99.168 37.9336 95.2061 37.9336C92.8199 37.9336 91.5142 37.1682 90.7939 35.4574C90.5688 35.0072 90.2536 34.7821 89.8934 34.7821C89.5783 34.7821 89.2181 34.9621 88.9029 35.2773C87.4172 36.8981 84.941 37.9336 82.6448 37.9336ZM88.2726 31.7205C88.7679 31.7205 89.2181 31.4954 89.5332 31.0902C89.7584 30.7751 89.8934 30.2798 89.8934 29.8296L89.9835 27.4884C90.0285 26.678 89.8034 26.3179 89.3982 26.3179C89.1731 26.3179 88.9029 26.4079 88.5428 26.633C87.3272 27.3984 86.7419 28.4789 86.7419 29.7846C86.7419 31.0452 87.2821 31.7205 88.2726 31.7205ZM104.472 37.4834C103.481 37.4834 102.806 36.9882 102.806 36.0877C102.806 35.5024 103.076 35.0072 103.616 34.647C104.291 34.2868 104.472 33.1162 104.472 29.6945V24.9222C104.472 21.0052 104.156 20.3299 103.031 19.1593C102.626 18.6641 102.581 18.3489 102.581 17.8537C102.581 17.2684 103.031 16.8632 103.616 16.8181C106.588 16.593 109.514 16.0528 112.485 15.2874C112.621 15.2424 112.756 15.2424 112.846 15.2424C113.566 15.2424 114.106 15.7826 114.106 16.548V17.2233C114.106 17.8987 114.286 18.2138 114.602 18.2138C114.872 18.2138 115.277 17.9437 115.727 17.5385C117.078 16.1878 119.014 14.9272 121.49 14.9272C123.426 14.9272 128.288 15.6025 128.288 22.2208V29.6945C128.288 33.1162 128.468 34.2868 129.099 34.647C129.684 35.0072 129.954 35.5024 129.954 36.0877C129.954 36.9882 129.279 37.4834 128.288 37.4834H118.293C117.438 37.4834 116.808 36.9882 116.808 36.0877C116.808 35.5024 117.033 35.0072 117.573 34.647C118.158 34.2868 118.383 33.1162 118.473 29.6945V25.0572C118.473 22.626 117.393 21.5905 116.132 21.5905C115.457 21.5905 114.286 21.9957 114.286 23.2563V29.6945C114.286 33.1162 114.466 34.2868 115.007 34.647C115.502 35.0072 115.682 35.5024 115.682 36.0877C115.682 36.9882 115.142 37.4834 114.331 37.4834H104.472Z" fill="#F77CA6"/>
<path d="M117 2.29785L119.459 8.44483" stroke="#F77CA6" stroke-width="1.74194" stroke-linecap="round"/>
<path d="M125.605 1L125.5 8" stroke="#F77CA6" stroke-width="1.74194" stroke-linecap="round"/>
<path d="M134.21 3.45864L130.499 9.99963" stroke="#F77CA6" stroke-width="1.74194" stroke-linecap="round"/>
<path d="M139.974 10.8352L133.5 13.5002" stroke="#F77CA6" stroke-width="1.74194" stroke-linecap="round"/>
<path d="M141 18.9999L134.5 18.5004" stroke="#F77CA6" stroke-width="1.74194" stroke-linecap="round"/>
</svg>
